<svg width="198" height="191" viewBox="0 0 198 191" fill="none" xmlns="http://www.w3.org/2000/svg">
<g clip-path="url(#clip0_1352_2455)">
<path d="M190.316 190.286H7.5C3.35786 190.286 0 186.929 0 182.786V7.5C0 3.35786 3.35786 0 7.5 0H190.316C194.459 0 197.816 3.35786 197.816 7.5V182.786C197.816 186.929 194.459 190.286 190.316 190.286Z" fill="#2C2927"/>
<path d="M17.7598 47.979L25.9795 41.979C28.2588 47.7993 33.4189 51.0991 38.8789 51.0991C42.5986 51.0991 45.0586 49.1792 45.0586 46.5991C45.0586 39.3394 19.9795 41.9194 19.9795 26.6802C19.9795 19.0005 27.4189 14.1401 36.1787 14.1401C43.0186 14.1401 50.7578 16.2407 55.6777 23.7397L47.5186 29.7397C45.5986 24.6997 40.9189 21.7603 36.1191 21.7603C33.0586 21.7603 30.7793 23.0796 30.7793 25.48C30.7793 33.3999 55.7979 30.1001 55.7979 45.6392C55.7979 53.8589 48.6582 58.7183 38.6387 58.7183C29.5791 58.7183 22.4394 55.0591 17.7598 47.979Z" fill="white"/>
<path d="M60.1797 25.2397H69.6592V33.2798C71.9394 27.9995 76.5586 24.3999 82.2588 24.3999C90.4785 24.3999 94.0186 30.0396 94.0186 36.0396V50.0786C94.0186 52.4185 94.1387 55.1792 94.4385 57.8784H84.5391V37.8999C84.5391 33.9399 82.6787 31.6597 78.6592 31.6597C74.0986 31.6597 69.6592 36.519 69.6592 43.4194V57.8784H60.1797L60.1797 25.2397Z" fill="white"/>
<path d="M120.658 51.6392C118.679 55.6587 115.019 58.7183 109.139 58.7183C102.419 58.7183 98.5186 54.8189 98.5186 49.5991C98.5186 42.6997 106.079 37.8999 120.538 36.5191C120.358 33.1001 118.618 31.2398 115.078 31.2398C111.358 31.2398 107.579 33.3999 104.819 37.8394L98.3389 32.7993C102.899 27.2798 109.079 24.3999 116.099 24.3999C126.118 24.3999 130.018 29.3794 130.018 36.8198V50.3188C130.018 51.8188 130.558 52.479 131.698 52.479C132.598 52.479 133.197 52.4185 134.338 52.0591L133.138 57.8784C131.817 58.4185 130.198 58.7183 128.698 58.7183C124.198 58.7183 121.198 56.3784 120.658 51.6392ZM112.078 51.2788C116.698 51.2788 120.538 48.0991 120.538 42.9995V42.5191C112.198 43.3589 108.358 45.2788 108.358 48.3394C108.358 50.1392 109.799 51.2788 112.078 51.2788Z" fill="white"/>
<path d="M147.059 52.4185V61.7778C147.059 64.1187 147.179 66.8784 147.479 69.5776H137.579V25.2397H147.059V30.9399C149.398 26.8599 153.298 24.3999 157.918 24.3999C167.277 24.3999 173.337 31.1196 173.337 41.5591C173.337 51.9985 167.277 58.7183 157.918 58.7183C153.479 58.7183 149.458 56.2583 147.059 52.4185ZM155.218 51.4585C160.078 51.4585 163.317 47.5591 163.317 41.5591C163.317 35.5591 160.078 31.6597 155.218 31.6597C150.599 31.6597 147.059 35.98 147.059 40.6597V42.4595C147.059 47.439 150.898 51.4585 155.218 51.4585Z" fill="white"/>
<path d="M17.7598 103.979L25.9795 97.979C28.2588 103.798 33.4189 107.099 38.8789 107.099C42.5986 107.099 45.0586 105.179 45.0586 102.599C45.0586 95.3393 19.9795 97.9194 19.9795 82.6792C19.9795 74.9995 27.4189 70.1401 36.1787 70.1401C43.0186 70.1401 50.7578 72.2397 55.6777 79.7397L47.5186 85.7397C45.5986 80.6997 40.9189 77.7603 36.1191 77.7603C33.0586 77.7603 30.7793 79.0796 30.7793 81.48C30.7793 89.3999 55.7979 86.0991 55.7979 101.639C55.7979 109.859 48.6582 114.718 38.6387 114.718C29.5791 114.718 22.4394 111.058 17.7598 103.979Z" fill="white"/>
<path d="M59.1592 98.3393C59.1592 87.48 66.1191 80.3999 76.6182 80.3999C87.2978 80.3999 92.9375 87.48 92.5781 99.4194H68.9385C69.3584 104.639 72.5986 107.878 76.918 107.878C81.2978 107.878 83.8779 104.999 85.0781 101.819L92.998 106.439C88.9775 112.258 83.0381 114.718 76.8584 114.718C66.4189 114.718 59.1592 108.659 59.1592 98.3393ZM82.8584 93.1792C82.2578 89.519 80.458 86.8198 76.6182 86.8198C73.1387 86.8198 70.5586 89.0991 69.4785 93.1792H82.8584Z" fill="white"/>
<path d="M97.3789 81.2397H106.858V89.2798C109.139 83.9995 113.759 80.3999 119.458 80.3999C127.678 80.3999 131.218 86.0396 131.218 92.0396V106.079C131.218 108.418 131.338 111.178 131.638 113.878H121.738V93.8989C121.738 89.939 119.878 87.6597 115.858 87.6597C111.299 87.6597 106.858 92.519 106.858 99.4194V113.878H97.3789L97.3789 81.2397Z" fill="white"/>
<path d="M135.538 97.5591C135.538 87.1196 141.598 80.3999 150.957 80.3999C155.397 80.3999 159.417 82.8599 161.816 86.6997V70.98H171.236V106.079C171.236 108.418 171.356 111.178 171.717 113.878H161.816V108.178C159.477 112.258 155.577 114.718 150.957 114.718C141.598 114.718 135.538 107.999 135.538 97.5591ZM153.657 107.458C158.277 107.458 161.816 103.139 161.816 98.4595V96.6587C161.816 91.6792 157.977 87.6597 153.657 87.6597C148.737 87.6597 145.558 91.5591 145.558 97.5591C145.558 103.559 148.737 107.458 153.657 107.458Z" fill="white"/>
<path d="M17.7598 159.979L25.9795 153.979C28.2588 159.798 33.4189 163.099 38.8789 163.099C42.5986 163.099 45.0586 161.179 45.0586 158.599C45.0586 151.339 19.9795 153.919 19.9795 138.679C19.9795 130.999 27.4189 126.14 36.1787 126.14C43.0186 126.14 50.7578 128.24 55.6777 135.74L47.5186 141.74C45.5986 136.7 40.9189 133.76 36.1191 133.76C33.0586 133.76 30.7793 135.08 30.7793 137.48C30.7793 145.4 55.7979 142.099 55.7979 157.639C55.7979 165.859 48.6582 170.718 38.6387 170.718C29.5791 170.718 22.4394 167.058 17.7598 159.979Z" fill="white"/>
<path d="M58.9795 153.5C58.9795 143.9 65.8193 136.4 76.7383 136.4C87.6582 136.4 94.5576 143.839 94.5576 153.5C94.5576 163.279 87.6582 170.718 76.7383 170.718C65.7588 170.718 58.9795 163.218 58.9795 153.5ZM76.6787 163.878C81.5381 163.878 84.4785 159.499 84.4785 153.5C84.4785 147.439 81.5381 143.24 76.6787 143.24C71.9385 143.24 69.0586 147.5 69.0586 153.5C69.0586 159.619 71.9385 163.878 76.6787 163.878Z" fill="white"/>
<path d="M98.9385 126.98H108.419V162.079C108.419 164.418 108.539 167.178 108.839 169.878H98.9385V126.98Z" fill="white"/>
<path d="M111.358 137.24H121.679L128.038 152.179C129.538 155.719 130.258 159.619 130.258 159.619C130.258 159.619 131.878 155.899 133.318 152.359L136.857 143.48C137.938 140.78 138.357 139.52 138.658 137.24H147.178L133.678 169.878H124.918L111.358 137.24Z" fill="white"/>
<path d="M146.218 154.339C146.218 143.48 153.178 136.4 163.677 136.4C174.356 136.4 179.997 143.48 179.637 155.419H155.997C156.418 160.639 159.657 163.878 163.978 163.878C168.357 163.878 170.937 160.999 172.137 157.819L180.057 162.439C176.037 168.258 170.097 170.718 163.917 170.718C153.478 170.718 146.218 164.659 146.218 154.339ZM169.917 149.179C169.317 145.519 167.517 142.82 163.677 142.82C160.197 142.82 157.617 145.099 156.537 149.179H169.917Z" fill="white"/>
</g>
<defs>
<clipPath id="clip0_1352_2455">
<rect width="197.816" height="190.286" fill="white"/>
</clipPath>
</defs>
</svg>
